<svg width="100" height="100" viewBox="0 0 100 100" fill="none" xmlns="http://www.w3.org/2000/svg">
<rect width="100" height="100" fill="#0F1118"/>
<g clip-path="url(#clip0_1_2)">
<path d="M70.0069 58.1728C69.3734 60.4363 66.8549 60.8134 63.0075 59.4856L50.8037 55.2012L57.5371 51.7097L70.0069 58.1728ZM42.8595 42.3594C42.8595 43.6269 42.9213 44.1248 43.8638 44.6228L47.5903 46.5542C46.5665 47.2212 45.9007 48.1054 45.4752 49.302C45.2396 49.1339 44.9412 48.9637 44.5591 48.7723L42.1488 47.5199C41.7625 47.3388 41.5462 47.2785 41.2526 47.2785C39.9702 47.2785 39.5066 48.4554 36.6173 48.4554C33.1718 48.4554 30.406 45.7394 30.406 42.3594C30.406 38.9643 33.1718 36.2332 36.6173 36.2332C40.0783 36.2332 42.8595 38.9492 42.8595 42.3594ZM32.94 42.3594C32.94 44.3663 34.5933 45.9959 36.6173 45.9959C38.7032 45.9959 40.341 44.3663 40.341 42.3594C40.341 40.3374 38.7032 38.7078 36.6173 38.7078C34.5933 38.7078 32.94 40.3374 32.94 42.3594Z" fill="white" fill-opacity="0.85"/>
<path d="M36.6173 65.627C40.0783 65.627 42.8595 62.9108 42.8595 59.5007C42.8595 58.2484 42.9213 57.7504 43.8638 57.2524L70.0069 43.6873C69.3734 41.4239 66.8549 41.0467 63.0075 42.3745L49.8125 47.0069C47.9583 47.6557 47.124 48.5309 46.6604 50.2208L46.3514 51.3223C46.1352 52.1071 45.7643 52.4994 44.5591 53.1029L42.1488 54.3403C41.7625 54.5364 41.5462 54.5968 41.2526 54.5968C39.9702 54.5968 39.5066 53.4198 36.6173 53.4198C33.1718 53.4198 30.406 56.1359 30.406 59.5007C30.406 62.8958 33.1718 65.627 36.6173 65.627ZM36.6173 63.1523C34.5933 63.1523 32.94 61.5378 32.94 59.5007C32.94 57.5089 34.5933 55.8794 36.6173 55.8794C38.7032 55.8794 40.341 57.5089 40.341 59.5007C40.341 61.5378 38.7032 63.1523 36.6173 63.1523ZM50.1678 51.3827C49.4726 51.3827 48.87 50.8245 48.87 50.1304C48.87 49.406 49.4726 48.8628 50.1678 48.8628C50.8785 48.8628 51.4812 49.406 51.4812 50.1304C51.4812 50.8245 50.8785 51.3827 50.1678 51.3827Z" fill="white" fill-opacity="0.85"/>
</g>
<path d="M12.7727 50.3409V48.2273C14.6705 48.2273 15.9943 47.8295 16.7443 47.0341C17.5057 46.2386 17.8864 44.9091 17.8864 43.0455V37.5909C17.8864 36.0227 18.0341 34.6648 18.3295 33.517C18.6364 32.3693 19.1307 31.4205 19.8125 30.6705C20.4943 29.9205 21.4034 29.3636 22.5398 29C23.6761 28.6364 25.0795 28.4545 26.75 28.4545V31.7955C25.4318 31.7955 24.392 32 23.6307 32.4091C22.8807 32.8182 22.3466 33.4545 22.0284 34.3182C21.7216 35.1705 21.5682 36.2614 21.5682 37.5909V44.4091C21.5682 45.2955 21.4489 46.1023 21.2102 46.8295C20.983 47.5568 20.5568 48.1818 19.9318 48.7045C19.3068 49.2273 18.4148 49.6307 17.2557 49.9148C16.108 50.1989 14.6136 50.3409 12.7727 50.3409ZM26.75 72.0909C25.0795 72.0909 23.6761 71.9091 22.5398 71.5455C21.4034 71.1818 20.4943 70.625 19.8125 69.875C19.1307 69.125 18.6364 68.1761 18.3295 67.0284C18.0341 65.8807 17.8864 64.5227 17.8864 62.9545V57.5C17.8864 55.6364 17.5057 54.3068 16.7443 53.5114C15.9943 52.7159 14.6705 52.3182 12.7727 52.3182V50.2045C14.6136 50.2045 16.108 50.3466 17.2557 50.6307C18.4148 50.9148 19.3068 51.3182 19.9318 51.8409C20.5568 52.3636 20.983 52.9886 21.2102 53.7159C21.4489 54.4432 21.5682 55.25 21.5682 56.1364V62.9545C21.5682 64.2841 21.7216 65.375 22.0284 66.2273C22.3466 67.0795 22.8807 67.7102 23.6307 68.1193C24.392 68.5398 25.4318 68.75 26.75 68.75V72.0909ZM12.7727 52.3182V48.2273H16.7955V52.3182H12.7727Z" fill="white"/>
<path d="M85.6136 50.2045V52.3182C83.7159 52.3182 82.3864 52.7159 81.625 53.5114C80.875 54.3068 80.5 55.6364 80.5 57.5V62.9545C80.5 64.5227 80.3466 65.8807 80.0398 67.0284C79.7443 68.1761 79.2557 69.125 78.5739 69.875C77.892 70.625 76.983 71.1818 75.8466 71.5455C74.7102 71.9091 73.3068 72.0909 71.6364 72.0909V68.75C72.9545 68.75 73.9886 68.5398 74.7386 68.1193C75.5 67.7102 76.0341 67.0795 76.3409 66.2273C76.6591 65.375 76.8182 64.2841 76.8182 62.9545V56.1364C76.8182 55.25 76.9318 54.4432 77.1591 53.7159C77.3977 52.9886 77.8295 52.3636 78.4545 51.8409C79.0795 51.3182 79.9659 50.9148 81.1136 50.6307C82.2727 50.3466 83.7727 50.2045 85.6136 50.2045ZM71.6364 28.4545C73.3068 28.4545 74.7102 28.6364 75.8466 29C76.983 29.3636 77.892 29.9205 78.5739 30.6705C79.2557 31.4205 79.7443 32.3693 80.0398 33.517C80.3466 34.6648 80.5 36.0227 80.5 37.5909V43.0455C80.5 44.9091 80.875 46.2386 81.625 47.0341C82.3864 47.8295 83.7159 48.2273 85.6136 48.2273V50.3409C83.7727 50.3409 82.2727 50.1989 81.1136 49.9148C79.9659 49.6307 79.0795 49.2273 78.4545 48.7045C77.8295 48.1818 77.3977 47.5568 77.1591 46.8295C76.9318 46.1023 76.8182 45.2955 76.8182 44.4091V37.5909C76.8182 36.2614 76.6591 35.1705 76.3409 34.3182C76.0341 33.4545 75.5 32.8182 74.7386 32.4091C73.9886 32 72.9545 31.7955 71.6364 31.7955V28.4545ZM85.6136 48.2273V52.3182H81.5909V48.2273H85.6136Z" fill="white"/>
<defs>
<clipPath id="clip0_1_2">
<rect width="43" height="33" fill="white" transform="translate(29 34)"/>
</clipPath>
</defs>
</svg>
